<svg xmlns="http://www.w3.org/2000/svg" viewBox="0 0 48.93 33.28"><defs><style>.cls-1{fill:#b70553;}</style></defs><title>Recurso 5-5</title><g id="Capa_2" data-name="Capa 2"><g id="Capa_1-2" data-name="Capa 1"><path class="cls-1" d="M12.43,6.16V27.48H8.28a.58.58,0,0,1-.49-.21A1.18,1.18,0,0,1,8,25.82l.34-.21a.44.44,0,0,0,.1-.18,2.18,2.18,0,0,0,.1-.79V9a2.25,2.25,0,0,0-.1-.8A.67.67,0,0,0,8.31,8L8,7.81c-.24-.13-.35-.42-.35-.84a.89.89,0,0,1,.17-.6.58.58,0,0,1,.49-.21h4.15Zm2.74,10.28a5.79,5.79,0,0,1,1.22.54,3.26,3.26,0,0,1,.77.67,4.46,4.46,0,0,1,.91,1.78,9.3,9.3,0,0,1,.31,2.46,6.89,6.89,0,0,1-1.11,4.17A3.32,3.32,0,0,1,16,27.16a4.38,4.38,0,0,1-1.81.32h-1V25.84a1.32,1.32,0,0,0,.56-.18,1.23,1.23,0,0,0,.36-.45,4.21,4.21,0,0,0,.29-1.79V19.87a7.83,7.83,0,0,0-.07-1.22,2.56,2.56,0,0,0-.28-.79,1.1,1.1,0,0,0-.33-.41,1.48,1.48,0,0,0-.5-.2V15.62a1.41,1.41,0,0,0,.51-.15,1.16,1.16,0,0,0,.33-.36,2.36,2.36,0,0,0,.23-.61,3.07,3.07,0,0,0,.11-.69V10.25a5.43,5.43,0,0,0-.08-.88,3.6,3.6,0,0,0-.19-.73,1.42,1.42,0,0,0-.38-.53,1.21,1.21,0,0,0-.56-.24V6.16h1a3.52,3.52,0,0,1,3.06,1.46A4.8,4.8,0,0,1,18,9.25a7.9,7.9,0,0,1,.26,2.06A8,8,0,0,1,18,13.37,4.7,4.7,0,0,1,17.23,15a2.91,2.91,0,0,1-.79.81A6.39,6.39,0,0,1,15.17,16.44Z"/><path class="cls-1" d="M25,6.14V8a1.29,1.29,0,0,0-.89.78,4.68,4.68,0,0,0-.29,1.84v13a2.66,2.66,0,0,0,.1.72,2.53,2.53,0,0,0,.24.66,1.18,1.18,0,0,0,.35.42,1,1,0,0,0,.49.18V27.4a4.55,4.55,0,0,1-3.4-1.51,8.49,8.49,0,0,1-1.92-3.59A19.53,19.53,0,0,1,19.07,17a20.08,20.08,0,0,1,.41-4.22,12.34,12.34,0,0,1,1.22-3.4A7.66,7.66,0,0,1,22.63,7a3.64,3.64,0,0,1,2.17-.88ZM25.83,8V6.15a6,6,0,0,1,.8.25c.21.09.58.28,1.12.57a2,2,0,0,0,.68.27q.3,0,.45-.39L29,6.49a.44.44,0,0,1,.45-.35.45.45,0,0,1,.42.24,1.3,1.3,0,0,1,.15.7v6.23a1.61,1.61,0,0,1-.18.87.51.51,0,0,1-.42.27.41.41,0,0,1-.38-.23,2.11,2.11,0,0,1-.24-.76,16.17,16.17,0,0,0-.42-1.85,9.36,9.36,0,0,0-1-2.31,3.9,3.9,0,0,0-.75-.92A1.77,1.77,0,0,0,25.83,8Zm0,19.44V25.58a3.07,3.07,0,0,0,1.66-.89,4,4,0,0,0,.82-1.16,6.3,6.3,0,0,0,.55-1.6,2.15,2.15,0,0,1,.24-.68.42.42,0,0,1,.35-.2.47.47,0,0,1,.41.27,1.26,1.26,0,0,1,.16.67,5,5,0,0,1-.35,1.64,8.15,8.15,0,0,1-.89,1.77,5.56,5.56,0,0,1-1.37,1.46A3.12,3.12,0,0,1,25.86,27.4Z"/><path class="cls-1" d="M36.67,6.15V8a1.26,1.26,0,0,0-.89.78,4.5,4.5,0,0,0-.3,1.85V23.66a3.27,3.27,0,0,0,.1.73,2.59,2.59,0,0,0,.25.65,1.32,1.32,0,0,0,.34.43,1.22,1.22,0,0,0,.5.17v1.83A4.57,4.57,0,0,1,33.26,26a8.7,8.7,0,0,1-1.92-3.6A19.73,19.73,0,0,1,30.7,17a20.22,20.22,0,0,1,.42-4.23,12.53,12.53,0,0,1,1.21-3.41A7.68,7.68,0,0,1,34.27,7a3.55,3.55,0,0,1,2.16-.89ZM37.46,8V6.16a5.18,5.18,0,0,1,.81.26q.3.13,1.11.57a2,2,0,0,0,.69.27c.19,0,.34-.13.44-.39l.13-.36a.46.46,0,0,1,.46-.36.47.47,0,0,1,.42.24,1.33,1.33,0,0,1,.14.7v6.26a1.61,1.61,0,0,1-.18.87.51.51,0,0,1-.41.27.46.46,0,0,1-.39-.23,2.18,2.18,0,0,1-.24-.76A19.06,19.06,0,0,0,40,11.63a9.74,9.74,0,0,0-1-2.31,4.2,4.2,0,0,0-.75-.93A1.8,1.8,0,0,0,37.46,8Zm0,19.49V25.64a3.07,3.07,0,0,0,1.66-.89A3.93,3.93,0,0,0,40,23.59a6.7,6.7,0,0,0,.54-1.6,2.23,2.23,0,0,1,.24-.69.42.42,0,0,1,.36-.2.47.47,0,0,1,.4.27,1.29,1.29,0,0,1,.16.68,5,5,0,0,1-.34,1.64,8.18,8.18,0,0,1-.9,1.77,5.31,5.31,0,0,1-1.37,1.47A3.08,3.08,0,0,1,37.49,27.47Z"/><path class="cls-1" d="M2.44,6.5a14.85,14.85,0,0,0-1.25-.91C.91,5.38.61,5.18.33,5s-.44-.54,0-.9S1,3.48,1.35,3.18l1.11-.91A.61.61,0,0,1,2.7,2C3.33,1.5,3.94,1,4.57.52A5.51,5.51,0,0,1,5.32.07.78.78,0,0,1,5.69,0h.58c.51.14.63.36.4.81A4.29,4.29,0,0,1,5.05,2.53,5.19,5.19,0,0,0,4.3,3c-.07.06-.2.1-.16.2s.17,0,.26.07a23.39,23.39,0,0,0,2.37.17c1.63.08,3.26.14,4.9.15.56,0,1.14.07,1.7,0a22,22,0,0,0,2.44-.11c.8,0,1.59,0,2.38-.06,1.9-.09,3.8-.09,5.7-.11.71,0,1.42,0,2.13-.06a1,1,0,0,0,.34-.05l.06,0c.87,0,1.74-.07,2.6-.05a4.42,4.42,0,0,0,1.15,0c.46,0,.93,0,1.39,0,.94,0,1.88-.11,2.82-.18.65,0,1.3-.1,2-.09,1.32,0,2.65,0,4,0a2.44,2.44,0,0,1,1.63.49c.08.14.23.25.24.42,0,.33-.25.61-.74.72a10.59,10.59,0,0,1-1.87.2c-.4,0-.79.06-1.19,0-.22,0-.44,0-.66,0a3.1,3.1,0,0,0-.86,0,1.77,1.77,0,0,1-.32,0c-1.18,0-2.34.08-3.51.1-1.39,0-2.79.07-4.18.1-.75,0-1.49,0-2.23,0a.74.74,0,0,0-.25,0,3.75,3.75,0,0,1-.67,0c-1.84,0-3.67.12-5.51.12-1,0-2,.11-3.05.07-.73,0-1.46,0-2.19,0-.52,0-1,0-1.57,0-.93,0-1.85,0-2.78,0a21.34,21.34,0,0,1-2.77,0H7.7c-1,0-2,0-3.07-.05a2.12,2.12,0,0,0-.44,0c-.28,0-.3.08-.1.24.48.39,1,.72,1.56,1.08a6,6,0,0,1,1.56,1.3.62.62,0,0,1-.07,1A.52.52,0,0,1,6.7,9,3,3,0,0,1,6,8.8,8.66,8.66,0,0,1,4,7.69a.82.82,0,0,0-.45-.33A2.71,2.71,0,0,1,3,7a1,1,0,0,0-.43-.3C2.47,6.62,2.41,6.57,2.44,6.5Z"/><path class="cls-1" d="M46.49,26.77a14.93,14.93,0,0,0,1.25.92l.86.62c.42.32.44.55,0,.9s-.72.59-1.07.88L46.47,31a.64.64,0,0,1-.24.28c-.63.48-1.24,1-1.87,1.46a4,4,0,0,1-.75.45.79.79,0,0,1-.37.07h-.58c-.51-.14-.63-.37-.4-.81a4.38,4.38,0,0,1,1.62-1.73,4.89,4.89,0,0,0,.75-.5c.07-.06.2-.11.16-.2s-.17-.06-.26-.07a23.4,23.4,0,0,0-2.37-.18c-1.63-.08-3.26-.13-4.9-.14-.56,0-1.14-.07-1.7,0-.81.07-1.64,0-2.44.11-.8,0-1.59,0-2.38.06-1.9.09-3.8.09-5.71.11L22.91,30a.93.93,0,0,0-.34.06H22.5c-.86,0-1.73.07-2.59,0a4.42,4.42,0,0,0-1.15.05c-.46,0-.93,0-1.39,0-.94,0-1.88.1-2.82.17-.65.05-1.3.1-2,.1-1.32,0-2.65,0-4,0A2.44,2.44,0,0,1,7,30c-.08-.14-.23-.26-.24-.43,0-.33.25-.6.74-.71a9.73,9.73,0,0,1,1.87-.2c.4,0,.79-.07,1.19-.05.22,0,.44,0,.66,0a3.09,3.09,0,0,0,.86,0l.32,0c1.18,0,2.34-.08,3.51-.09,1.39,0,2.79-.07,4.18-.11.74,0,1.48,0,2.23,0a.93.93,0,0,0,.24,0,5.15,5.15,0,0,1,.68,0c1.84,0,3.67-.12,5.51-.11,1,0,2-.11,3.05-.08.73,0,1.46,0,2.19,0C34.5,28,35,28,35.55,28c.93,0,1.85,0,2.77,0a19.83,19.83,0,0,1,2.78,0,.57.57,0,0,0,.13,0c1,0,2,.05,3.06.06a3.27,3.27,0,0,0,.45,0c.28,0,.3-.09.1-.25-.48-.39-1-.71-1.56-1.07a6.09,6.09,0,0,1-1.57-1.3.62.62,0,0,1,.08-1,.53.53,0,0,1,.44-.1,3.67,3.67,0,0,1,.67.18,9.24,9.24,0,0,1,2,1.1.79.79,0,0,0,.45.34,2.18,2.18,0,0,1,.61.41,1,1,0,0,0,.43.29C46.46,26.66,46.52,26.7,46.49,26.77Z"/></g></g></svg>