<svg xmlns="http://www.w3.org/2000/svg" width="1554.883" height="117.44" viewBox="0 0 1554.883 117.44">
  <g id="Circuit_nav_graphics" data-name="Circuit nav graphics" transform="translate(-168.558 -963)">
    <g id="Circuit_nav_component_1" data-name="Circuit nav component 1">
      <path id="Trazado_33" data-name="Trazado 33" d="M5007,3348v-50h33v-42" transform="translate(-4623 -2268)" fill="none" stroke="#21c267" stroke-width="1"/>
      <g id="Elipse_45" data-name="Elipse 45" transform="translate(386 1032)" fill="#21c267" stroke="#07311a" stroke-width="1">
        <circle cx="3" cy="3" r="3" stroke="none"/>
        <circle cx="3" cy="3" r="2.5" fill="none"/>
      </g>
      <g id="Elipse_47" data-name="Elipse 47" transform="translate(409 1022)" fill="#21c267" stroke="#07311a" stroke-width="1">
        <circle cx="3" cy="3" r="3" stroke="none"/>
        <circle cx="3" cy="3" r="2.5" fill="none"/>
      </g>
    </g>
    <g id="Circuit_nav_component_2" data-name="Circuit nav component 2">
      <path id="Trazado_34" data-name="Trazado 34" d="M6118,3348v-54h26v-34" transform="translate(-4623 -2268)" fill="none" stroke="#21c267" stroke-width="1"/>
      <g id="Elipse_44" data-name="Elipse 44" transform="translate(1513 1017)" fill="#21c267" stroke="#07311a" stroke-width="1">
        <circle cx="3" cy="3" r="3" stroke="none"/>
        <circle cx="3" cy="3" r="2.5" fill="none"/>
      </g>
      <g id="Elipse_46" data-name="Elipse 46" transform="translate(1497 1028)" fill="#21c267" stroke="#07311a" stroke-width="1">
        <circle cx="3" cy="3" r="3" stroke="none"/>
        <circle cx="3" cy="3" r="2.5" fill="none"/>
      </g>
    </g>
    <g id="Circuit_nav_center" data-name="Circuit nav center">
      <path id="Trazado_37" data-name="Trazado 37" d="M5525,3348v-96" transform="translate(-4603 -2268)" fill="none" stroke="#21c267" stroke-width="3"/>
      <path id="Trazado_38" data-name="Trazado 38" d="M5554,3348v-60" transform="translate(-4603 -2268)" fill="none" stroke="#07311a" stroke-width="1"/>
      <path id="Trazado_39" data-name="Trazado 39" d="M5583.5,3348v-94" transform="translate(-4603 -2268)" fill="none" stroke="#21c267" stroke-width="3"/>
      <g id="Elipse_37" data-name="Elipse 37" transform="translate(948 1017)" fill="#21c267" stroke="#07311a" stroke-width="1">
        <circle cx="3" cy="3" r="3" stroke="none"/>
        <circle cx="3" cy="3" r="2.5" fill="none"/>
      </g>
    </g>
    <g id="Circuit_nav_inner_2" data-name="Circuit nav inner 2">
      <path id="Trazado_36" data-name="Trazado 36" d="M5873,3348l-41-40h-90" transform="translate(-4623 -2268)" fill="none" stroke="#0a3d20" stroke-width="1"/>
      <g id="Circuit_component" data-name="Circuit component" transform="translate(1146 868)">
        <g id="Elipse_20" data-name="Elipse 20" transform="translate(13 191)" fill="none" stroke="#167740" stroke-width="1">
          <circle cx="3" cy="3" r="3" stroke="none"/>
          <circle cx="3" cy="3" r="2.5" fill="none"/>
        </g>
        <g id="Elipse_21" data-name="Elipse 21" transform="translate(24 191)" fill="#1c9d54" stroke="#bbbf4a" stroke-width="1">
          <circle cx="3" cy="3" r="3" stroke="none"/>
          <circle cx="3" cy="3" r="2.5" fill="none"/>
        </g>
        <g id="Elipse_22" data-name="Elipse 22" transform="translate(35 191)" fill="none" stroke="#167740" stroke-width="1">
          <circle cx="3" cy="3" r="3" stroke="none"/>
          <circle cx="3" cy="3" r="2.5" fill="none"/>
        </g>
        <circle id="Elipse_23" data-name="Elipse 23" cx="3" cy="3" r="3" transform="translate(46 191)" fill="#167740"/>
      </g>
      <g id="Elipse_38" data-name="Elipse 38" transform="translate(1115 1037)" fill="#21c267" stroke="#07311a" stroke-width="1">
        <circle cx="3" cy="3" r="3" stroke="none"/>
        <circle cx="3" cy="3" r="2.5" fill="none"/>
      </g>
    </g>
    <g id="Circuit_nav_inner_1" data-name="Circuit nav inner 1">
      <path id="Trazado_35" data-name="Trazado 35" d="M5198,3348l74-40h84" transform="translate(-4623 -2268)" fill="none" stroke="#0a3d20" stroke-width="1"/>
      <g id="Circuit_component-2" data-name="Circuit component" transform="translate(650 868)">
        <g id="Elipse_20-2" data-name="Elipse 20" transform="translate(13 191)" fill="none" stroke="#167740" stroke-width="1">
          <circle cx="3" cy="3" r="3" stroke="none"/>
          <circle cx="3" cy="3" r="2.5" fill="none"/>
        </g>
        <g id="Elipse_21-2" data-name="Elipse 21" transform="translate(24 191)" fill="#1c9d54" stroke="#bbbf4a" stroke-width="1">
          <circle cx="3" cy="3" r="3" stroke="none"/>
          <circle cx="3" cy="3" r="2.5" fill="none"/>
        </g>
        <g id="Elipse_22-2" data-name="Elipse 22" transform="translate(35 191)" fill="none" stroke="#167740" stroke-width="1">
          <circle cx="3" cy="3" r="3" stroke="none"/>
          <circle cx="3" cy="3" r="2.5" fill="none"/>
        </g>
        <circle id="Elipse_23-2" data-name="Elipse 23" cx="3" cy="3" r="3" transform="translate(46 191)" fill="#167740"/>
      </g>
      <g id="Elipse_39" data-name="Elipse 39" transform="translate(730 1037)" fill="#21c267" stroke="#07311a" stroke-width="1">
        <circle cx="3" cy="3" r="3" stroke="none"/>
        <circle cx="3" cy="3" r="2.5" fill="none"/>
      </g>
    </g>
    <g id="Circuit_nav_2" data-name="Circuit nav 2">
      <path id="Trazado_30" data-name="Trazado 30" d="M4834,3348l32-50,50-22" transform="translate(-4623 -2268)" fill="none" stroke="#0a3d20" stroke-width="1"/>
      <g id="Elipse_40" data-name="Elipse 40" transform="translate(290 1005)" fill="#21c267" stroke="#07311a" stroke-width="1">
        <circle cx="3" cy="3" r="3" stroke="none"/>
        <circle cx="3" cy="3" r="2.5" fill="none"/>
      </g>
    </g>
    <g id="Circuit_nav_1" data-name="Circuit nav 1">
      <path id="Trazado_29" data-name="Trazado 29" d="M4792,3348l40-76,92-38" transform="translate(-4623 -2268)" fill="none" stroke="#0a3d20" stroke-width="1"/>
      <g id="Elipse_41" data-name="Elipse 41" transform="translate(298 963)" fill="#21c267" stroke="#07311a" stroke-width="1">
        <circle cx="3" cy="3" r="3" stroke="none"/>
        <circle cx="3" cy="3" r="2.5" fill="none"/>
      </g>
    </g>
    <g id="Circuit_nav_4" data-name="Circuit nav 4">
      <path id="Trazado_32" data-name="Trazado 32" d="M6304,3348l-24-54-40-24" transform="translate(-4623 -2268)" fill="none" stroke="#0a3d20" stroke-width="1"/>
      <g id="Elipse_42" data-name="Elipse 42" transform="translate(1614 999)" fill="#21c267" stroke="#07311a" stroke-width="1">
        <circle cx="3" cy="3" r="3" stroke="none"/>
        <circle cx="3" cy="3" r="2.5" fill="none"/>
      </g>
    </g>
    <g id="Circuit_nav_3" data-name="Circuit nav 3">
      <path id="Trazado_31" data-name="Trazado 31" d="M6346,3348l-46-86-60-22" transform="translate(-4623 -2268)" fill="none" stroke="#0a3d20" stroke-width="1"/>
      <g id="Elipse_43" data-name="Elipse 43" transform="translate(1614 969)" fill="#21c267" stroke="#07311a" stroke-width="1">
        <circle cx="3" cy="3" r="3" stroke="none"/>
        <circle cx="3" cy="3" r="2.5" fill="none"/>
      </g>
    </g>
  </g>
</svg>
